<?xml version="1.0" encoding="utf-8"?><svg xmlns="http://www.w3.org/2000/svg"><symbol viewBox="0 0 24 24" id="dashboard"><rect width="20" height="20" x="2" y="2"/><path d="M11 7L17 7M11 12L17 12M11 17L17 17"/><line x1="7" y1="7" x2="7" y2="7"/><line x1="7" y1="12" x2="7" y2="12"/><line x1="7" y1="17" x2="7" y2="17"/></symbol><symbol viewBox="0 0 24 24" id="add"><path d="M17 12L7 12M12 17L12 7"/><circle cx="12" cy="12" r="10"/></symbol><symbol viewBox="0 0 24 24" id="user"><path stroke-linecap="round" d="M5.5,19.5 C7.83333333,18.5 9.33333333,17.6666667 10,17 C11,16 8,16 8,11 C8,7.66666667 9.33333333,6 12,6 C14.6666667,6 16,7.66666667 16,11 C16,16 13,16 14,17 C14.6666667,17.6666667 16.1666667,18.5 18.5,19.5"/><circle cx="12" cy="12" r="10"/></symbol></svg>